<?xml version="1.0" encoding="UTF-8" standalone="no"?>
<svg xmlns="http://www.w3.org/2000/svg" xmlns:svg="http://www.w3.org/2000/svg" xmlns:xlink="http://www.w3.org/1999/xlink" width="32" height="32" viewBox="0 0 4.23 4.23">
  <title>
    Codeberg logo favicon
  </title>
  <defs>
    <linearGradient id="b" x1="42519.29" x2="42575.34" y1="-7078.79" y2="-6966.93" gradientUnits="userSpaceOnUse" xlink:href="#a"/>
    <linearGradient id="a">
      <stop offset="0" stop-color="#2185d0" stop-opacity="0"/>
      <stop offset=".5" stop-color="#2185d0" stop-opacity=".49"/>
      <stop offset="1" stop-color="#2185d0" stop-opacity=".63"/>
    </linearGradient>
  </defs>
  <metadata/>
  <g paint-order="stroke markers fill">
    <path fill="url(#b)" style="font-variation-settings:normal" d="M42519.29-7078.79a.76.57 0 00-.74.67l33.58 125.9a87.18 87.18 0 0039.38-33.77l-71.56-92.52a.76.57 0 00-.66-.28z" opacity=".5" transform="matrix(.02417 0 0 .02417 -1025.69 172.24)"/>
    <path fill="#2185d0" d="M2.1.14A2.1 2.1 0 000 2.24a2.1 2.1 0 00.33 1.12L2.1 1.1a.03.02 0 01.06 0L3.9 3.36a2.1 2.1 0 00.32-1.12 2.1 2.1 0 00-2.1-2.1 2.1 2.1 0 00-.01 0z"/>
  </g>
</svg>
